<svg width="390" height="366" viewBox="0 0 390 366" fill="none" xmlns="http://www.w3.org/2000/svg">
<rect width="390" height="366" fill="white"/>
<path d="M27.86 39.288C27.392 39.288 26.93 39.21 26.474 39.054C26.018 38.91 25.592 38.694 25.196 38.406C24.8 38.106 24.446 37.74 24.134 37.308C23.834 36.876 23.612 36.378 23.468 35.814L24.548 35.364C24.656 35.772 24.812 36.15 25.016 36.498C25.232 36.846 25.484 37.146 25.772 37.398C26.06 37.65 26.384 37.848 26.744 37.992C27.104 38.124 27.488 38.19 27.896 38.19C28.292 38.19 28.67 38.136 29.03 38.028C29.39 37.908 29.702 37.74 29.966 37.524C30.242 37.296 30.458 37.026 30.614 36.714C30.77 36.39 30.848 36.03 30.848 35.634C30.848 34.95 30.596 34.398 30.092 33.978C29.588 33.546 28.856 33.162 27.896 32.826L27.086 32.538C26.702 32.406 26.324 32.25 25.952 32.07C25.58 31.878 25.244 31.65 24.944 31.386C24.656 31.122 24.422 30.81 24.242 30.45C24.062 30.078 23.972 29.646 23.972 29.154C23.972 28.71 24.062 28.284 24.242 27.876C24.434 27.468 24.698 27.114 25.034 26.814C25.37 26.514 25.772 26.274 26.24 26.094C26.708 25.914 27.218 25.824 27.77 25.824C28.358 25.824 28.874 25.914 29.318 26.094C29.762 26.262 30.14 26.478 30.452 26.742C30.776 26.994 31.028 27.27 31.208 27.57C31.4 27.87 31.538 28.146 31.622 28.398L30.542 28.848C30.482 28.632 30.38 28.416 30.236 28.2C30.104 27.972 29.924 27.762 29.696 27.57C29.468 27.378 29.198 27.222 28.886 27.102C28.574 26.982 28.208 26.922 27.788 26.922C27.428 26.922 27.086 26.976 26.762 27.084C26.45 27.192 26.168 27.348 25.916 27.552C25.676 27.744 25.484 27.978 25.34 28.254C25.208 28.53 25.142 28.83 25.142 29.154C25.142 29.466 25.202 29.742 25.322 29.982C25.454 30.21 25.634 30.42 25.862 30.612C26.09 30.792 26.36 30.96 26.672 31.116C26.984 31.26 27.326 31.398 27.698 31.53L28.526 31.836C29.006 32.004 29.456 32.196 29.876 32.412C30.308 32.628 30.68 32.886 30.992 33.186C31.304 33.474 31.55 33.816 31.73 34.212C31.922 34.608 32.018 35.064 32.018 35.58C32.018 36.228 31.892 36.786 31.64 37.254C31.388 37.722 31.064 38.106 30.668 38.406C30.272 38.706 29.822 38.928 29.318 39.072C28.826 39.216 28.34 39.288 27.86 39.288ZM41.5579 36.912C41.4019 37.236 41.2039 37.542 40.9639 37.83C40.7239 38.118 40.4419 38.37 40.1179 38.586C39.8059 38.802 39.4459 38.97 39.0379 39.09C38.6299 39.222 38.1799 39.288 37.6879 39.288C37.0519 39.288 36.4639 39.174 35.9239 38.946C35.3839 38.706 34.9159 38.376 34.5199 37.956C34.1359 37.536 33.8359 37.044 33.6199 36.48C33.4039 35.904 33.2959 35.274 33.2959 34.59C33.2959 33.954 33.3919 33.354 33.5839 32.79C33.7879 32.214 34.0759 31.716 34.4479 31.296C34.8199 30.864 35.2699 30.522 35.7979 30.27C36.3259 30.018 36.9199 29.892 37.5799 29.892C38.2159 29.892 38.7859 30.006 39.2899 30.234C39.8059 30.45 40.2439 30.762 40.6039 31.17C40.9639 31.566 41.2399 32.046 41.4319 32.61C41.6359 33.174 41.7379 33.798 41.7379 34.482C41.7379 34.518 41.7379 34.554 41.7379 34.59C41.7259 34.626 41.7199 34.656 41.7199 34.68V34.788H34.4659C34.4779 35.4 34.5859 35.922 34.7899 36.354C34.9939 36.786 35.2519 37.146 35.5639 37.434C35.8759 37.71 36.2239 37.914 36.6079 38.046C36.9919 38.178 37.3639 38.244 37.7239 38.244C38.4679 38.244 39.0559 38.076 39.4879 37.74C39.9199 37.392 40.2799 36.954 40.5679 36.426L41.5579 36.912ZM40.5319 33.816C40.5199 33.528 40.4599 33.216 40.3519 32.88C40.2439 32.544 40.0759 32.232 39.8479 31.944C39.6199 31.656 39.3139 31.416 38.9299 31.224C38.5579 31.032 38.0959 30.936 37.5439 30.936C37.1839 30.936 36.8359 31.002 36.4999 31.134C36.1639 31.254 35.8579 31.434 35.5819 31.674C35.3179 31.914 35.0899 32.214 34.8979 32.574C34.7179 32.934 34.5979 33.348 34.5379 33.816H40.5319ZM43.3456 39V26.112H44.4976V39H43.3456ZM54.2668 36.912C54.1108 37.236 53.9128 37.542 53.6728 37.83C53.4328 38.118 53.1508 38.37 52.8268 38.586C52.5148 38.802 52.1548 38.97 51.7468 39.09C51.3388 39.222 50.8888 39.288 50.3968 39.288C49.7608 39.288 49.1728 39.174 48.6328 38.946C48.0928 38.706 47.6248 38.376 47.2288 37.956C46.8448 37.536 46.5448 37.044 46.3288 36.48C46.1128 35.904 46.0048 35.274 46.0048 34.59C46.0048 33.954 46.1008 33.354 46.2928 32.79C46.4968 32.214 46.7848 31.716 47.1568 31.296C47.5288 30.864 47.9788 30.522 48.5068 30.27C49.0348 30.018 49.6288 29.892 50.2888 29.892C50.9248 29.892 51.4948 30.006 51.9988 30.234C52.5148 30.45 52.9528 30.762 53.3128 31.17C53.6728 31.566 53.9488 32.046 54.1408 32.61C54.3448 33.174 54.4468 33.798 54.4468 34.482C54.4468 34.518 54.4468 34.554 54.4468 34.59C54.4348 34.626 54.4288 34.656 54.4288 34.68V34.788H47.1748C47.1868 35.4 47.2948 35.922 47.4988 36.354C47.7028 36.786 47.9608 37.146 48.2728 37.434C48.5848 37.71 48.9328 37.914 49.3168 38.046C49.7008 38.178 50.0728 38.244 50.4328 38.244C51.1768 38.244 51.7648 38.076 52.1968 37.74C52.6288 37.392 52.9888 36.954 53.2768 36.426L54.2668 36.912ZM53.2408 33.816C53.2288 33.528 53.1688 33.216 53.0608 32.88C52.9528 32.544 52.7848 32.232 52.5568 31.944C52.3288 31.656 52.0228 31.416 51.6388 31.224C51.2668 31.032 50.8048 30.936 50.2528 30.936C49.8928 30.936 49.5448 31.002 49.2088 31.134C48.8728 31.254 48.5668 31.434 48.2908 31.674C48.0268 31.914 47.7988 32.214 47.6068 32.574C47.4268 32.934 47.3068 33.348 47.2468 33.816H53.2408ZM63.8465 36.768C63.6905 37.128 63.4925 37.464 63.2525 37.776C63.0245 38.076 62.7545 38.34 62.4425 38.568C62.1305 38.784 61.7705 38.958 61.3625 39.09C60.9545 39.222 60.5045 39.288 60.0125 39.288C59.3765 39.288 58.7885 39.168 58.2485 38.928C57.7085 38.688 57.2405 38.358 56.8445 37.938C56.4605 37.518 56.1545 37.026 55.9265 36.462C55.7105 35.886 55.6025 35.262 55.6025 34.59C55.6025 33.918 55.7105 33.3 55.9265 32.736C56.1545 32.16 56.4605 31.662 56.8445 31.242C57.2405 30.822 57.7085 30.492 58.2485 30.252C58.7885 30.012 59.3765 29.892 60.0125 29.892C60.5045 29.892 60.9485 29.958 61.3445 30.09C61.7525 30.21 62.1125 30.384 62.4245 30.612C62.7485 30.84 63.0245 31.104 63.2525 31.404C63.4805 31.704 63.6665 32.034 63.8105 32.394L62.7845 32.844C62.5205 32.232 62.1545 31.764 61.6865 31.44C61.2185 31.104 60.6425 30.936 59.9585 30.936C59.5505 30.936 59.1545 31.026 58.7705 31.206C58.3865 31.374 58.0445 31.62 57.7445 31.944C57.4445 32.256 57.2045 32.64 57.0245 33.096C56.8445 33.54 56.7545 34.038 56.7545 34.59C56.7545 35.142 56.8445 35.646 57.0245 36.102C57.2045 36.546 57.4445 36.93 57.7445 37.254C58.0445 37.566 58.3865 37.812 58.7705 37.992C59.1545 38.16 59.5505 38.244 59.9585 38.244C60.6425 38.244 61.2245 38.082 61.7045 37.758C62.1845 37.422 62.5565 36.948 62.8205 36.336L63.8465 36.768ZM66.2731 31.224H64.6711V30.18H66.2731V27.48H67.4251V30.18H69.6211V31.224H67.4251V36.534C67.4251 37.05 67.5511 37.434 67.8031 37.686C68.0431 37.95 68.3311 38.082 68.6671 38.082C68.8471 38.082 68.9971 38.07 69.1171 38.046C69.2491 38.01 69.3931 37.956 69.5491 37.884L69.9091 38.874C69.7051 38.97 69.4951 39.036 69.2791 39.072C69.0751 39.12 68.8291 39.144 68.5411 39.144C67.9171 39.144 67.3891 38.946 66.9571 38.55C66.7411 38.346 66.5731 38.1 66.4531 37.812C66.3331 37.512 66.2731 37.152 66.2731 36.732V31.224ZM77.9228 39V27.21H74.2688V26.112H82.7288V27.21H79.0748V39H77.9228ZM83.8792 42.888L85.9132 38.352L82.2052 30.18H83.4832L86.4712 36.984H86.5072L89.3692 30.18H90.6292L85.0672 42.888H83.8792ZM91.7189 30.18H92.7989V31.71H92.8709C93.0149 31.47 93.1889 31.242 93.3929 31.026C93.5969 30.798 93.8369 30.6 94.1129 30.432C94.3889 30.264 94.7009 30.132 95.0489 30.036C95.3969 29.94 95.7809 29.892 96.2009 29.892C96.7649 29.892 97.2989 30.012 97.8029 30.252C98.3069 30.48 98.7449 30.804 99.1169 31.224C99.5009 31.632 99.8009 32.124 100.017 32.7C100.245 33.276 100.359 33.906 100.359 34.59C100.359 35.274 100.245 35.904 100.017 36.48C99.8009 37.056 99.5009 37.554 99.1169 37.974C98.7449 38.382 98.3069 38.706 97.8029 38.946C97.2989 39.174 96.7649 39.288 96.2009 39.288C95.7809 39.288 95.3969 39.234 95.0489 39.126C94.7009 39.03 94.3889 38.898 94.1129 38.73C93.8369 38.562 93.5969 38.37 93.3929 38.154C93.1889 37.926 93.0149 37.692 92.8709 37.452H92.7989L92.8709 38.676V42.888H91.7189V30.18ZM96.0029 38.244C96.4229 38.244 96.8249 38.16 97.2089 37.992C97.6049 37.824 97.9469 37.584 98.2349 37.272C98.5349 36.96 98.7689 36.576 98.9369 36.12C99.1169 35.664 99.2069 35.154 99.2069 34.59C99.2069 34.026 99.1169 33.522 98.9369 33.078C98.7689 32.622 98.5349 32.238 98.2349 31.926C97.9469 31.602 97.6049 31.356 97.2089 31.188C96.8249 31.02 96.4229 30.936 96.0029 30.936C95.5829 30.936 95.1749 31.02 94.7789 31.188C94.3949 31.344 94.0529 31.578 93.7529 31.89C93.4649 32.202 93.2309 32.586 93.0509 33.042C92.8829 33.498 92.7989 34.014 92.7989 34.59C92.7989 35.166 92.8829 35.682 93.0509 36.138C93.2309 36.582 93.4649 36.966 93.7529 37.29C94.0529 37.602 94.3949 37.842 94.7789 38.01C95.1749 38.166 95.5829 38.244 96.0029 38.244ZM109.691 36.912C109.535 37.236 109.337 37.542 109.097 37.83C108.857 38.118 108.575 38.37 108.251 38.586C107.939 38.802 107.579 38.97 107.171 39.09C106.763 39.222 106.313 39.288 105.821 39.288C105.185 39.288 104.597 39.174 104.057 38.946C103.517 38.706 103.049 38.376 102.653 37.956C102.269 37.536 101.969 37.044 101.753 36.48C101.537 35.904 101.429 35.274 101.429 34.59C101.429 33.954 101.525 33.354 101.717 32.79C101.921 32.214 102.209 31.716 102.581 31.296C102.953 30.864 103.403 30.522 103.931 30.27C104.459 30.018 105.053 29.892 105.713 29.892C106.349 29.892 106.919 30.006 107.423 30.234C107.939 30.45 108.377 30.762 108.737 31.17C109.097 31.566 109.373 32.046 109.565 32.61C109.769 33.174 109.871 33.798 109.871 34.482C109.871 34.518 109.871 34.554 109.871 34.59C109.859 34.626 109.853 34.656 109.853 34.68V34.788H102.599C102.611 35.4 102.719 35.922 102.923 36.354C103.127 36.786 103.385 37.146 103.697 37.434C104.009 37.71 104.357 37.914 104.741 38.046C105.125 38.178 105.497 38.244 105.857 38.244C106.601 38.244 107.189 38.076 107.621 37.74C108.053 37.392 108.413 36.954 108.701 36.426L109.691 36.912ZM108.665 33.816C108.653 33.528 108.593 33.216 108.485 32.88C108.377 32.544 108.209 32.232 107.981 31.944C107.753 31.656 107.447 31.416 107.063 31.224C106.691 31.032 106.229 30.936 105.677 30.936C105.317 30.936 104.969 31.002 104.633 31.134C104.297 31.254 103.991 31.434 103.715 31.674C103.451 31.914 103.223 32.214 103.031 32.574C102.851 32.934 102.731 33.348 102.671 33.816H108.665Z" fill="#282828"/>
<path d="M23 78C23 67.5066 31.5066 59 42 59H137.667V97H42C31.5066 97 23 88.4934 23 78V78Z" fill="#286DE8"/>
<path d="M72.0594 73.692H73.7494L77.2464 83H75.6214L74.7764 80.608H71.0324L70.1874 83H68.5624L72.0594 73.692ZM74.2824 79.269L73.3074 76.526L72.9434 75.434H72.8654L72.5014 76.526L71.5264 79.269H74.2824ZM78.7334 73.692H80.2024V81.596H84.1934V83H78.7334V73.692ZM85.8265 73.692H87.2955V81.596H91.2865V83H85.8265V73.692Z" fill="white"/>
<rect x="137.667" y="59" width="114.667" height="38" fill="#F2F2F2"/>
<path d="M165.251 73.692H170.919V75.096H166.72V77.761H170.503V79.139H166.72V83H165.251V73.692ZM176.903 83.208C176.21 83.208 175.568 83.0823 174.979 82.831C174.398 82.5797 173.891 82.2373 173.458 81.804C173.025 81.362 172.687 80.8463 172.444 80.257C172.201 79.659 172.08 79.022 172.08 78.346C172.08 77.67 172.201 77.0373 172.444 76.448C172.687 75.8587 173.025 75.343 173.458 74.901C173.891 74.459 174.398 74.1123 174.979 73.861C175.568 73.6097 176.21 73.484 176.903 73.484C177.588 73.484 178.225 73.6097 178.814 73.861C179.403 74.1123 179.915 74.459 180.348 74.901C180.781 75.343 181.119 75.8587 181.362 76.448C181.605 77.0373 181.726 77.67 181.726 78.346C181.726 79.022 181.605 79.659 181.362 80.257C181.119 80.8463 180.781 81.362 180.348 81.804C179.915 82.2373 179.403 82.5797 178.814 82.831C178.225 83.0823 177.588 83.208 176.903 83.208ZM176.903 81.804C177.362 81.804 177.796 81.7217 178.203 81.557C178.61 81.3923 178.961 81.1583 179.256 80.855C179.559 80.5517 179.798 80.1877 179.971 79.763C180.144 79.3383 180.231 78.866 180.231 78.346C180.231 77.826 180.144 77.3537 179.971 76.929C179.798 76.5043 179.559 76.1403 179.256 75.837C178.961 75.5337 178.61 75.2997 178.203 75.135C177.796 74.9703 177.362 74.888 176.903 74.888C176.444 74.888 176.01 74.9703 175.603 75.135C175.196 75.2997 174.84 75.5337 174.537 75.837C174.242 76.1403 174.008 76.5043 173.835 76.929C173.662 77.3537 173.575 77.826 173.575 78.346C173.575 78.866 173.662 79.3383 173.835 79.763C174.008 80.1877 174.242 80.5517 174.537 80.855C174.84 81.1583 175.196 81.3923 175.603 81.557C176.01 81.7217 176.444 81.804 176.903 81.804ZM183.538 73.692H186.827C187.252 73.692 187.646 73.7613 188.01 73.9C188.383 74.0387 188.704 74.238 188.972 74.498C189.241 74.7493 189.449 75.0483 189.596 75.395C189.752 75.7417 189.83 76.123 189.83 76.539C189.83 76.8597 189.774 77.163 189.661 77.449C189.557 77.735 189.41 77.995 189.219 78.229C189.029 78.4543 188.803 78.6493 188.543 78.814C188.292 78.9787 188.019 79.1 187.724 79.178L187.711 79.243L190.259 82.922V83H188.543L186.086 79.373H185.007V83H183.538V73.692ZM186.788 77.995C187.005 77.995 187.204 77.9603 187.386 77.891C187.577 77.813 187.742 77.709 187.88 77.579C188.019 77.449 188.127 77.2973 188.205 77.124C188.292 76.942 188.335 76.7427 188.335 76.526C188.335 76.3527 188.301 76.1793 188.231 76.006C188.171 75.8327 188.075 75.6767 187.945 75.538C187.824 75.3993 187.668 75.2867 187.477 75.2C187.295 75.1133 187.083 75.07 186.84 75.07H185.007V77.995H186.788ZM194.957 73.692H198.246C198.671 73.692 199.065 73.7613 199.429 73.9C199.802 74.0387 200.122 74.238 200.391 74.498C200.66 74.7493 200.868 75.0483 201.015 75.395C201.171 75.7417 201.249 76.123 201.249 76.539C201.249 76.8597 201.193 77.163 201.08 77.449C200.976 77.735 200.829 77.995 200.638 78.229C200.447 78.4543 200.222 78.6493 199.962 78.814C199.711 78.9787 199.438 79.1 199.143 79.178L199.13 79.243L201.678 82.922V83H199.962L197.505 79.373H196.426V83H194.957V73.692ZM198.207 77.995C198.424 77.995 198.623 77.9603 198.805 77.891C198.996 77.813 199.16 77.709 199.299 77.579C199.438 77.449 199.546 77.2973 199.624 77.124C199.711 76.942 199.754 76.7427 199.754 76.526C199.754 76.3527 199.719 76.1793 199.65 76.006C199.589 75.8327 199.494 75.6767 199.364 75.538C199.243 75.3993 199.087 75.2867 198.896 75.2C198.714 75.1133 198.502 75.07 198.259 75.07H196.426V77.995H198.207ZM204.598 75.096V77.657H208.381V79.035H204.598V81.596H208.797V83H203.129V73.692H208.797V75.096H204.598ZM210.794 73.692H212.549L216.683 80.439H216.761L216.683 78.645V73.692H218.139V83H216.605L212.263 75.915H212.185L212.263 77.709V83H210.794V73.692ZM222.376 83V75.096H219.776V73.692H226.445V75.096H223.845V83H222.376Z" fill="#8D8D8D"/>
<path d="M252 59H347.667C358.16 59 366.667 67.5066 366.667 78V78C366.667 88.4934 358.16 97 347.667 97H252V59Z" fill="#F2F2F2"/>
<path d="M280.1 73.692H285.768V75.096H281.569V77.761H285.352V79.139H281.569V83H280.1V73.692ZM291.752 83.208C291.059 83.208 290.417 83.0823 289.828 82.831C289.247 82.5797 288.74 82.2373 288.307 81.804C287.874 81.362 287.536 80.8463 287.293 80.257C287.05 79.659 286.929 79.022 286.929 78.346C286.929 77.67 287.05 77.0373 287.293 76.448C287.536 75.8587 287.874 75.343 288.307 74.901C288.74 74.459 289.247 74.1123 289.828 73.861C290.417 73.6097 291.059 73.484 291.752 73.484C292.437 73.484 293.074 73.6097 293.663 73.861C294.252 74.1123 294.764 74.459 295.197 74.901C295.63 75.343 295.968 75.8587 296.211 76.448C296.454 77.0373 296.575 77.67 296.575 78.346C296.575 79.022 296.454 79.659 296.211 80.257C295.968 80.8463 295.63 81.362 295.197 81.804C294.764 82.2373 294.252 82.5797 293.663 82.831C293.074 83.0823 292.437 83.208 291.752 83.208ZM291.752 81.804C292.211 81.804 292.645 81.7217 293.052 81.557C293.459 81.3923 293.81 81.1583 294.105 80.855C294.408 80.5517 294.647 80.1877 294.82 79.763C294.993 79.3383 295.08 78.866 295.08 78.346C295.08 77.826 294.993 77.3537 294.82 76.929C294.647 76.5043 294.408 76.1403 294.105 75.837C293.81 75.5337 293.459 75.2997 293.052 75.135C292.645 74.9703 292.211 74.888 291.752 74.888C291.293 74.888 290.859 74.9703 290.452 75.135C290.045 75.2997 289.689 75.5337 289.386 75.837C289.091 76.1403 288.857 76.5043 288.684 76.929C288.511 77.3537 288.424 77.826 288.424 78.346C288.424 78.866 288.511 79.3383 288.684 79.763C288.857 80.1877 289.091 80.5517 289.386 80.855C289.689 81.1583 290.045 81.3923 290.452 81.557C290.859 81.7217 291.293 81.804 291.752 81.804ZM298.387 73.692H301.676C302.101 73.692 302.495 73.7613 302.859 73.9C303.232 74.0387 303.552 74.238 303.821 74.498C304.09 74.7493 304.298 75.0483 304.445 75.395C304.601 75.7417 304.679 76.123 304.679 76.539C304.679 76.8597 304.623 77.163 304.51 77.449C304.406 77.735 304.259 77.995 304.068 78.229C303.877 78.4543 303.652 78.6493 303.392 78.814C303.141 78.9787 302.868 79.1 302.573 79.178L302.56 79.243L305.108 82.922V83H303.392L300.935 79.373H299.856V83H298.387V73.692ZM301.637 77.995C301.854 77.995 302.053 77.9603 302.235 77.891C302.426 77.813 302.59 77.709 302.729 77.579C302.868 77.449 302.976 77.2973 303.054 77.124C303.141 76.942 303.184 76.7427 303.184 76.526C303.184 76.3527 303.149 76.1793 303.08 76.006C303.019 75.8327 302.924 75.6767 302.794 75.538C302.673 75.3993 302.517 75.2867 302.326 75.2C302.144 75.1133 301.932 75.07 301.689 75.07H299.856V77.995H301.637ZM312.155 83.208C311.783 83.208 311.419 83.1517 311.063 83.039C310.717 82.935 310.392 82.7747 310.088 82.558C309.794 82.3413 309.534 82.0727 309.308 81.752C309.083 81.4313 308.91 81.0587 308.788 80.634L310.192 80.062C310.253 80.3047 310.34 80.5343 310.452 80.751C310.574 80.959 310.717 81.141 310.881 81.297C311.055 81.453 311.245 81.5787 311.453 81.674C311.67 81.7607 311.908 81.804 312.168 81.804C312.385 81.804 312.593 81.778 312.792 81.726C312.992 81.6653 313.165 81.5787 313.312 81.466C313.46 81.3533 313.577 81.2147 313.663 81.05C313.759 80.8853 313.806 80.6947 313.806 80.478C313.806 80.2873 313.772 80.114 313.702 79.958C313.633 79.802 313.525 79.659 313.377 79.529C313.23 79.399 313.035 79.2777 312.792 79.165C312.55 79.0437 312.259 78.9223 311.921 78.801L311.336 78.593C311.085 78.5063 310.825 78.3937 310.556 78.255C310.296 78.1077 310.058 77.9343 309.841 77.735C309.633 77.527 309.46 77.2843 309.321 77.007C309.191 76.7297 309.126 76.4047 309.126 76.032C309.126 75.6853 309.196 75.3603 309.334 75.057C309.482 74.745 309.685 74.472 309.945 74.238C310.205 74.004 310.513 73.822 310.868 73.692C311.232 73.5533 311.631 73.484 312.064 73.484C312.515 73.484 312.909 73.549 313.247 73.679C313.594 73.8003 313.884 73.9563 314.118 74.147C314.352 74.3377 314.539 74.55 314.677 74.784C314.825 75.0093 314.933 75.2217 315.002 75.421L313.676 75.98C313.633 75.85 313.568 75.72 313.481 75.59C313.403 75.4513 313.299 75.33 313.169 75.226C313.039 75.122 312.883 75.0353 312.701 74.966C312.528 74.8967 312.324 74.862 312.09 74.862C311.882 74.862 311.687 74.8923 311.505 74.953C311.323 75.005 311.163 75.083 311.024 75.187C310.894 75.291 310.79 75.4123 310.712 75.551C310.634 75.6897 310.595 75.8413 310.595 76.006C310.595 76.3353 310.73 76.604 310.998 76.812C311.276 77.0113 311.679 77.202 312.207 77.384L312.792 77.592C313.156 77.7133 313.49 77.8563 313.793 78.021C314.097 78.1857 314.361 78.385 314.586 78.619C314.812 78.8443 314.985 79.1087 315.106 79.412C315.236 79.7153 315.301 80.0663 315.301 80.465C315.301 80.9503 315.202 81.3663 315.002 81.713C314.812 82.051 314.565 82.3327 314.261 82.558C313.958 82.7833 313.62 82.948 313.247 83.052C312.875 83.156 312.511 83.208 312.155 83.208ZM319.73 73.692H321.42L324.917 83H323.292L322.447 80.608H318.703L317.858 83H316.233L319.73 73.692ZM321.953 79.269L320.978 76.526L320.614 75.434H320.536L320.172 76.526L319.197 79.269H321.953ZM326.404 73.692H327.873V81.596H331.864V83H326.404V73.692ZM334.966 75.096V77.657H338.749V79.035H334.966V81.596H339.165V83H333.497V73.692H339.165V75.096H334.966Z" fill="#8D8D8D"/>
<rect x="15" y="116" width="360" height="0.5" fill="#D9D9D9"/>
<rect x="15" y="268" width="360" height="0.5" fill="#D9D9D9"/>
<path d="M23 158C23 147.507 31.5066 139 42 139H137.667V177H42C31.5066 177 23 168.493 23 158V158Z" fill="#286DE8"/>
<path d="M74.7236 161.531C74.2816 162.051 73.7486 162.463 73.1246 162.766C72.5006 163.061 71.7986 163.208 71.0186 163.208C70.3252 163.208 69.6839 163.087 69.0946 162.844C68.5052 162.593 67.9896 162.25 67.5476 161.817C67.1142 161.375 66.7719 160.859 66.5206 160.27C66.2779 159.681 66.1566 159.039 66.1566 158.346C66.1566 157.661 66.2779 157.024 66.5206 156.435C66.7719 155.837 67.1142 155.321 67.5476 154.888C67.9896 154.446 68.5052 154.104 69.0946 153.861C69.6839 153.61 70.3252 153.484 71.0186 153.484C71.7379 153.484 72.3836 153.618 72.9556 153.887C73.5276 154.147 74.0302 154.52 74.4636 155.005L73.4236 156.019C73.1116 155.646 72.7606 155.365 72.3706 155.174C71.9892 154.983 71.5386 154.888 71.0186 154.888C70.5592 154.888 70.1216 154.97 69.7056 155.135C69.2982 155.291 68.9429 155.521 68.6396 155.824C68.3362 156.119 68.0936 156.483 67.9116 156.916C67.7382 157.341 67.6516 157.817 67.6516 158.346C67.6516 158.875 67.7382 159.356 67.9116 159.789C68.0936 160.214 68.3362 160.578 68.6396 160.881C68.9429 161.176 69.2982 161.405 69.7056 161.57C70.1216 161.726 70.5592 161.804 71.0186 161.804C71.5732 161.804 72.0672 161.691 72.5006 161.466C72.9339 161.232 73.3196 160.911 73.6576 160.504L74.7236 161.531ZM76.5231 153.692H77.9921V163H76.5231V153.692ZM82.2279 163V155.096H79.6279V153.692H86.2969V155.096H83.6969V163H82.2279ZM90.282 158.671L87.149 153.692H88.904L90.984 157.124H91.062L93.077 153.692H94.832L91.751 158.671V163H90.282V158.671Z" fill="white"/>
<path d="M138 139H233.667C244.16 139 252.667 147.507 252.667 158V158C252.667 168.493 244.16 177 233.667 177H138V139Z" fill="#F2F2F2"/>
<path d="M163.493 153.692H164.962V161.596H168.953V163H163.493V153.692ZM174.764 163.208C174.071 163.208 173.429 163.082 172.84 162.831C172.259 162.58 171.752 162.237 171.319 161.804C170.886 161.362 170.548 160.846 170.305 160.257C170.062 159.659 169.941 159.022 169.941 158.346C169.941 157.67 170.062 157.037 170.305 156.448C170.548 155.859 170.886 155.343 171.319 154.901C171.752 154.459 172.259 154.112 172.84 153.861C173.429 153.61 174.071 153.484 174.764 153.484C175.449 153.484 176.086 153.61 176.675 153.861C177.264 154.112 177.776 154.459 178.209 154.901C178.642 155.343 178.98 155.859 179.223 156.448C179.466 157.037 179.587 157.67 179.587 158.346C179.587 159.022 179.466 159.659 179.223 160.257C178.98 160.846 178.642 161.362 178.209 161.804C177.776 162.237 177.264 162.58 176.675 162.831C176.086 163.082 175.449 163.208 174.764 163.208ZM174.764 161.804C175.223 161.804 175.657 161.722 176.064 161.557C176.471 161.392 176.822 161.158 177.117 160.855C177.42 160.552 177.659 160.188 177.832 159.763C178.005 159.338 178.092 158.866 178.092 158.346C178.092 157.826 178.005 157.354 177.832 156.929C177.659 156.504 177.42 156.14 177.117 155.837C176.822 155.534 176.471 155.3 176.064 155.135C175.657 154.97 175.223 154.888 174.764 154.888C174.305 154.888 173.871 154.97 173.464 155.135C173.057 155.3 172.701 155.534 172.398 155.837C172.103 156.14 171.869 156.504 171.696 156.929C171.523 157.354 171.436 157.826 171.436 158.346C171.436 158.866 171.523 159.338 171.696 159.763C171.869 160.188 172.103 160.552 172.398 160.855C172.701 161.158 173.057 161.392 173.464 161.557C173.871 161.722 174.305 161.804 174.764 161.804ZM189.384 161.531C188.942 162.051 188.409 162.463 187.785 162.766C187.161 163.061 186.459 163.208 185.679 163.208C184.986 163.208 184.345 163.087 183.755 162.844C183.166 162.593 182.65 162.25 182.208 161.817C181.775 161.375 181.433 160.859 181.181 160.27C180.939 159.681 180.817 159.039 180.817 158.346C180.817 157.661 180.939 157.024 181.181 156.435C181.433 155.837 181.775 155.321 182.208 154.888C182.65 154.446 183.166 154.104 183.755 153.861C184.345 153.61 184.986 153.484 185.679 153.484C186.399 153.484 187.044 153.618 187.616 153.887C188.188 154.147 188.691 154.52 189.124 155.005L188.084 156.019C187.772 155.646 187.421 155.365 187.031 155.174C186.65 154.983 186.199 154.888 185.679 154.888C185.22 154.888 184.782 154.97 184.366 155.135C183.959 155.291 183.604 155.521 183.3 155.824C182.997 156.119 182.754 156.483 182.572 156.916C182.399 157.341 182.312 157.817 182.312 158.346C182.312 158.875 182.399 159.356 182.572 159.789C182.754 160.214 182.997 160.578 183.3 160.881C183.604 161.176 183.959 161.405 184.366 161.57C184.782 161.726 185.22 161.804 185.679 161.804C186.234 161.804 186.728 161.691 187.161 161.466C187.595 161.232 187.98 160.911 188.318 160.504L189.384 161.531ZM193.901 153.692H195.591L199.088 163H197.463L196.618 160.608H192.874L192.029 163H190.404L193.901 153.692ZM196.124 159.269L195.149 156.526L194.785 155.434H194.707L194.343 156.526L193.368 159.269H196.124ZM201.7 163V155.096H199.1V153.692H205.769V155.096H203.169V163H201.7ZM207.401 153.692H208.87V163H207.401V153.692ZM215.371 163.208C214.678 163.208 214.037 163.082 213.447 162.831C212.867 162.58 212.36 162.237 211.926 161.804C211.493 161.362 211.155 160.846 210.912 160.257C210.67 159.659 210.548 159.022 210.548 158.346C210.548 157.67 210.67 157.037 210.912 156.448C211.155 155.859 211.493 155.343 211.926 154.901C212.36 154.459 212.867 154.112 213.447 153.861C214.037 153.61 214.678 153.484 215.371 153.484C216.056 153.484 216.693 153.61 217.282 153.861C217.872 154.112 218.383 154.459 218.816 154.901C219.25 155.343 219.588 155.859 219.83 156.448C220.073 157.037 220.194 157.67 220.194 158.346C220.194 159.022 220.073 159.659 219.83 160.257C219.588 160.846 219.25 161.362 218.816 161.804C218.383 162.237 217.872 162.58 217.282 162.831C216.693 163.082 216.056 163.208 215.371 163.208ZM215.371 161.804C215.831 161.804 216.264 161.722 216.671 161.557C217.079 161.392 217.43 161.158 217.724 160.855C218.028 160.552 218.266 160.188 218.439 159.763C218.613 159.338 218.699 158.866 218.699 158.346C218.699 157.826 218.613 157.354 218.439 156.929C218.266 156.504 218.028 156.14 217.724 155.837C217.43 155.534 217.079 155.3 216.671 155.135C216.264 154.97 215.831 154.888 215.371 154.888C214.912 154.888 214.479 154.97 214.071 155.135C213.664 155.3 213.309 155.534 213.005 155.837C212.711 156.14 212.477 156.504 212.303 156.929C212.13 157.354 212.043 157.826 212.043 158.346C212.043 158.866 212.13 159.338 212.303 159.763C212.477 160.188 212.711 160.552 213.005 160.855C213.309 161.158 213.664 161.392 214.071 161.557C214.479 161.722 214.912 161.804 215.371 161.804ZM222.007 153.692H223.762L227.896 160.439H227.974L227.896 158.645V153.692H229.352V163H227.818L223.476 155.915H223.398L223.476 157.709V163H222.007V153.692Z" fill="#8D8D8D"/>
<rect x="23" y="198" width="333" height="49" rx="10" fill="#F5F5F5"/>
<path d="M51.71 224.135C51.71 225.075 51.365 225.83 50.675 226.4C49.975 226.96 49.125 227.24 48.125 227.24C47.235 227.24 46.45 226.98 45.77 226.46C45.09 225.94 44.62 225.23 44.36 224.33L45.68 223.79C45.77 224.11 45.895 224.4 46.055 224.66C46.215 224.92 46.4 225.145 46.61 225.335C46.83 225.515 47.07 225.66 47.33 225.77C47.59 225.87 47.865 225.92 48.155 225.92C48.785 225.92 49.3 225.76 49.7 225.44C50.1 225.11 50.3 224.675 50.3 224.135C50.3 223.685 50.135 223.3 49.805 222.98C49.495 222.67 48.915 222.37 48.065 222.08C47.205 221.77 46.67 221.56 46.46 221.45C45.32 220.87 44.75 220.015 44.75 218.885C44.75 218.095 45.065 217.42 45.695 216.86C46.335 216.3 47.12 216.02 48.05 216.02C48.87 216.02 49.58 216.23 50.18 216.65C50.78 217.06 51.18 217.575 51.38 218.195L50.09 218.735C49.97 218.335 49.73 218.005 49.37 217.745C49.02 217.475 48.59 217.34 48.08 217.34C47.54 217.34 47.085 217.49 46.715 217.79C46.345 218.07 46.16 218.435 46.16 218.885C46.16 219.255 46.305 219.575 46.595 219.845C46.915 220.115 47.61 220.435 48.68 220.805C49.77 221.175 50.545 221.63 51.005 222.17C51.475 222.7 51.71 223.355 51.71 224.135ZM56.431 227.24C55.351 227.24 54.461 226.87 53.761 226.13C53.061 225.39 52.711 224.455 52.711 223.325C52.711 222.205 53.051 221.275 53.731 220.535C54.411 219.785 55.281 219.41 56.341 219.41C57.431 219.41 58.296 219.765 58.936 220.475C59.586 221.175 59.911 222.16 59.911 223.43L59.896 223.58H54.121C54.141 224.3 54.381 224.88 54.841 225.32C55.301 225.76 55.851 225.98 56.491 225.98C57.371 225.98 58.061 225.54 58.561 224.66L59.791 225.26C59.461 225.88 59.001 226.365 58.411 226.715C57.831 227.065 57.171 227.24 56.431 227.24ZM54.226 222.44H58.441C58.401 221.93 58.191 221.51 57.811 221.18C57.441 220.84 56.941 220.67 56.311 220.67C55.791 220.67 55.341 220.83 54.961 221.15C54.591 221.47 54.346 221.9 54.226 222.44ZM62.553 216.26V227H61.173V216.26H62.553ZM67.4613 227.24C66.3813 227.24 65.4913 226.87 64.7913 226.13C64.0913 225.39 63.7413 224.455 63.7413 223.325C63.7413 222.205 64.0813 221.275 64.7613 220.535C65.4413 219.785 66.3113 219.41 67.3713 219.41C68.4613 219.41 69.3263 219.765 69.9663 220.475C70.6163 221.175 70.9413 222.16 70.9413 223.43L70.9263 223.58H65.1513C65.1713 224.3 65.4113 224.88 65.8713 225.32C66.3313 225.76 66.8813 225.98 67.5213 225.98C68.4013 225.98 69.0913 225.54 69.5913 224.66L70.8213 225.26C70.4913 225.88 70.0313 226.365 69.4413 226.715C68.8613 227.065 68.2013 227.24 67.4613 227.24ZM65.2563 222.44H69.4713C69.4313 221.93 69.2213 221.51 68.8413 221.18C68.4713 220.84 67.9713 220.67 67.3413 220.67C66.8213 220.67 66.3713 220.83 65.9913 221.15C65.6213 221.47 65.3763 221.9 65.2563 222.44ZM75.6365 227.24C74.5465 227.24 73.6415 226.87 72.9215 226.13C72.2115 225.37 71.8565 224.435 71.8565 223.325C71.8565 222.195 72.2115 221.26 72.9215 220.52C73.6415 219.78 74.5465 219.41 75.6365 219.41C76.3865 219.41 77.0415 219.6 77.6015 219.98C78.1615 220.35 78.5815 220.865 78.8615 221.525L77.6015 222.05C77.2115 221.13 76.5265 220.67 75.5465 220.67C74.9165 220.67 74.3715 220.925 73.9115 221.435C73.4615 221.945 73.2365 222.575 73.2365 223.325C73.2365 224.075 73.4615 224.705 73.9115 225.215C74.3715 225.725 74.9165 225.98 75.5465 225.98C76.5565 225.98 77.2665 225.52 77.6765 224.6L78.9065 225.125C78.6365 225.785 78.2115 226.305 77.6315 226.685C77.0615 227.055 76.3965 227.24 75.6365 227.24ZM82.9502 227.12C82.3502 227.12 81.8502 226.935 81.4502 226.565C81.0602 226.195 80.8602 225.68 80.8502 225.02V220.91H79.5602V219.65H80.8502V217.4H82.2302V219.65H84.0302V220.91H82.2302V224.57C82.2302 225.06 82.3252 225.395 82.5152 225.575C82.7052 225.745 82.9202 225.83 83.1602 225.83C83.2702 225.83 83.3752 225.82 83.4752 225.8C83.5852 225.77 83.6852 225.735 83.7752 225.695L84.2102 226.925C83.8502 227.055 83.4302 227.12 82.9502 227.12ZM93.6409 227.24C92.0509 227.24 90.7209 226.705 89.6509 225.635C88.5909 224.565 88.0609 223.23 88.0609 221.63C88.0609 220.03 88.5909 218.7 89.6509 217.64C90.7109 216.56 92.0409 216.02 93.6409 216.02C95.2609 216.02 96.5759 216.605 97.5859 217.775L96.5959 218.735C95.8259 217.805 94.8409 217.34 93.6409 217.34C92.4509 217.34 91.4559 217.74 90.6559 218.54C89.8659 219.33 89.4709 220.36 89.4709 221.63C89.4709 222.9 89.8659 223.93 90.6559 224.72C91.4559 225.52 92.4509 225.92 93.6409 225.92C94.8909 225.92 95.9759 225.395 96.8959 224.345L97.9009 225.32C97.3909 225.93 96.7659 226.405 96.0259 226.745C95.2859 227.075 94.4909 227.24 93.6409 227.24ZM100.912 217.115C100.912 217.385 100.817 217.615 100.627 217.805C100.437 217.995 100.207 218.09 99.9371 218.09C99.6671 218.09 99.4371 217.995 99.2471 217.805C99.0571 217.615 98.9621 217.385 98.9621 217.115C98.9621 216.845 99.0571 216.615 99.2471 216.425C99.4371 216.235 99.6671 216.14 99.9371 216.14C100.207 216.14 100.437 216.235 100.627 216.425C100.817 216.615 100.912 216.845 100.912 217.115ZM100.627 219.65V227H99.2471V219.65H100.627ZM105.26 227.12C104.66 227.12 104.16 226.935 103.76 226.565C103.37 226.195 103.17 225.68 103.16 225.02V220.91H101.87V219.65H103.16V217.4H104.54V219.65H106.34V220.91H104.54V224.57C104.54 225.06 104.635 225.395 104.825 225.575C105.015 225.745 105.23 225.83 105.47 225.83C105.58 225.83 105.685 225.82 105.785 225.8C105.895 225.77 105.995 225.735 106.085 225.695L106.52 226.925C106.16 227.055 105.74 227.12 105.26 227.12ZM114.296 219.65L109.691 230.24H108.266L109.976 226.535L106.946 219.65H108.446L110.636 224.93H110.666L112.796 219.65H114.296Z" fill="#282828"/>
<path d="M335.217 223.283L330.45 228.05C329.869 228.631 329.205 228.76 328.457 228.439C327.709 228.117 327.334 227.545 327.333 226.721L327.333 217.279C327.333 216.454 327.708 215.881 328.457 215.559C329.206 215.238 329.871 215.368 330.45 215.95L335.217 220.717C335.4 220.9 335.537 221.099 335.629 221.312C335.721 221.526 335.767 221.756 335.767 222C335.767 222.244 335.721 222.474 335.629 222.687C335.537 222.901 335.4 223.1 335.217 223.283Z" fill="#286DE8"/>
<rect x="133" y="285" width="223" height="54" rx="27" fill="#282828"/>
<path d="M214.196 316.208C213.119 316.208 212.202 315.963 211.444 315.472C210.698 314.981 210.175 314.309 209.876 313.456L211.46 312.528C211.908 313.787 212.836 314.416 214.244 314.416C214.938 314.416 215.455 314.283 215.796 314.016C216.148 313.739 216.324 313.381 216.324 312.944C216.324 312.485 216.138 312.139 215.764 311.904C215.391 311.659 214.73 311.392 213.78 311.104C213.247 310.944 212.815 310.795 212.484 310.656C212.154 310.517 211.802 310.325 211.428 310.08C211.066 309.824 210.794 309.509 210.612 309.136C210.431 308.763 210.34 308.325 210.34 307.824C210.34 306.832 210.692 306.048 211.396 305.472C212.1 304.885 212.948 304.592 213.94 304.592C214.836 304.592 215.62 304.811 216.292 305.248C216.964 305.685 217.482 306.288 217.844 307.056L216.292 307.952C215.823 306.907 215.039 306.384 213.94 306.384C213.407 306.384 212.98 306.512 212.66 306.768C212.34 307.013 212.18 307.349 212.18 307.776C212.18 308.192 212.34 308.523 212.66 308.768C212.991 309.003 213.583 309.253 214.436 309.52C214.863 309.659 215.172 309.765 215.364 309.84C215.567 309.904 215.844 310.011 216.196 310.16C216.559 310.309 216.831 310.459 217.012 310.608C217.194 310.757 217.386 310.944 217.588 311.168C217.802 311.392 217.951 311.648 218.036 311.936C218.122 312.224 218.164 312.549 218.164 312.912C218.164 313.925 217.796 314.731 217.06 315.328C216.335 315.915 215.38 316.208 214.196 316.208ZM221.536 312.736C221.664 313.344 221.958 313.813 222.416 314.144C222.875 314.464 223.435 314.624 224.096 314.624C225.014 314.624 225.702 314.293 226.16 313.632L227.584 314.464C226.795 315.627 225.627 316.208 224.08 316.208C222.779 316.208 221.728 315.813 220.928 315.024C220.128 314.224 219.728 313.216 219.728 312C219.728 310.805 220.123 309.808 220.912 309.008C221.702 308.197 222.715 307.792 223.952 307.792C225.126 307.792 226.086 308.203 226.832 309.024C227.59 309.845 227.968 310.843 227.968 312.016C227.968 312.197 227.947 312.437 227.904 312.736H221.536ZM221.52 311.328H226.224C226.107 310.677 225.835 310.187 225.408 309.856C224.992 309.525 224.502 309.36 223.936 309.36C223.296 309.36 222.763 309.536 222.336 309.888C221.91 310.24 221.638 310.72 221.52 311.328ZM236.098 308H237.826V316H236.098V314.848C235.447 315.755 234.514 316.208 233.298 316.208C232.199 316.208 231.261 315.803 230.482 314.992C229.703 314.171 229.314 313.173 229.314 312C229.314 310.816 229.703 309.819 230.482 309.008C231.261 308.197 232.199 307.792 233.298 307.792C234.514 307.792 235.447 308.24 236.098 309.136V308ZM231.762 313.84C232.242 314.32 232.845 314.56 233.57 314.56C234.295 314.56 234.898 314.32 235.378 313.84C235.858 313.349 236.098 312.736 236.098 312C236.098 311.264 235.858 310.656 235.378 310.176C234.898 309.685 234.295 309.44 233.57 309.44C232.845 309.44 232.242 309.685 231.762 310.176C231.282 310.656 231.042 311.264 231.042 312C231.042 312.736 231.282 313.349 231.762 313.84ZM241.888 309.344C242.326 308.352 243.147 307.856 244.352 307.856V309.728C243.691 309.685 243.115 309.845 242.624 310.208C242.134 310.56 241.888 311.147 241.888 311.968V316H240.16V308H241.888V309.344ZM249.35 316.208C248.145 316.208 247.137 315.803 246.326 314.992C245.526 314.181 245.126 313.184 245.126 312C245.126 310.805 245.526 309.808 246.326 309.008C247.137 308.197 248.145 307.792 249.35 307.792C250.129 307.792 250.838 307.979 251.478 308.352C252.118 308.725 252.598 309.227 252.918 309.856L251.43 310.72C251.249 310.336 250.971 310.037 250.598 309.824C250.235 309.6 249.814 309.488 249.334 309.488C248.63 309.488 248.038 309.728 247.558 310.208C247.089 310.688 246.854 311.285 246.854 312C246.854 312.715 247.089 313.312 247.558 313.792C248.038 314.272 248.63 314.512 249.334 314.512C249.803 314.512 250.225 314.4 250.598 314.176C250.982 313.952 251.27 313.653 251.462 313.28L252.95 314.128C252.609 314.768 252.118 315.275 251.478 315.648C250.838 316.021 250.129 316.208 249.35 316.208ZM258.727 307.792C259.644 307.792 260.386 308.085 260.951 308.672C261.516 309.259 261.799 310.064 261.799 311.088V316H260.071V311.264C260.071 310.667 259.911 310.208 259.591 309.888C259.271 309.568 258.834 309.408 258.279 309.408C257.671 309.408 257.18 309.6 256.807 309.984C256.434 310.357 256.247 310.933 256.247 311.712V316H254.519V304.8H256.247V309.024C256.77 308.203 257.596 307.792 258.727 307.792Z" fill="white"/>
<path d="M51.9968 316L49.6288 311.92H47.4528V316H45.6128V304.8H50.0928C51.0955 304.8 51.9435 305.152 52.6368 305.856C53.3408 306.549 53.6928 307.397 53.6928 308.4C53.6928 309.115 53.4848 309.771 53.0688 310.368C52.6635 310.955 52.1301 311.381 51.4688 311.648L54.0128 316H51.9968ZM47.4528 306.528V310.272H50.0928C50.5835 310.272 50.9995 310.091 51.3408 309.728C51.6821 309.365 51.8528 308.923 51.8528 308.4C51.8528 307.877 51.6821 307.435 51.3408 307.072C50.9995 306.709 50.5835 306.528 50.0928 306.528H47.4528ZM56.5714 312.736C56.6994 313.344 56.9928 313.813 57.4514 314.144C57.9101 314.464 58.4701 314.624 59.1314 314.624C60.0488 314.624 60.7368 314.293 61.1954 313.632L62.6194 314.464C61.8301 315.627 60.6621 316.208 59.1154 316.208C57.8141 316.208 56.7634 315.813 55.9634 315.024C55.1634 314.224 54.7634 313.216 54.7634 312C54.7634 310.805 55.1581 309.808 55.9474 309.008C56.7368 308.197 57.7501 307.792 58.9874 307.792C60.1608 307.792 61.1208 308.203 61.8674 309.024C62.6248 309.845 63.0034 310.843 63.0034 312.016C63.0034 312.197 62.9821 312.437 62.9394 312.736H56.5714ZM56.5554 311.328H61.2594C61.1421 310.677 60.8701 310.187 60.4434 309.856C60.0274 309.525 59.5368 309.36 58.9714 309.36C58.3314 309.36 57.7981 309.536 57.3714 309.888C56.9448 310.24 56.6728 310.72 56.5554 311.328ZM66.0834 310.208C66.0834 310.475 66.2274 310.688 66.5154 310.848C66.8141 310.997 67.1714 311.131 67.5874 311.248C68.0141 311.355 68.4408 311.483 68.8674 311.632C69.2941 311.781 69.6514 312.037 69.9394 312.4C70.2381 312.752 70.3874 313.2 70.3874 313.744C70.3874 314.512 70.0888 315.115 69.4914 315.552C68.9048 315.989 68.1634 316.208 67.2674 316.208C66.4781 316.208 65.8008 316.043 65.2354 315.712C64.6701 315.381 64.2594 314.923 64.0034 314.336L65.4914 313.472C65.7688 314.24 66.3608 314.624 67.2674 314.624C68.1741 314.624 68.6274 314.325 68.6274 313.728C68.6274 313.472 68.4781 313.264 68.1794 313.104C67.8914 312.944 67.5341 312.811 67.1074 312.704C66.6914 312.587 66.2701 312.453 65.8434 312.304C65.4168 312.155 65.0541 311.909 64.7554 311.568C64.4674 311.216 64.3234 310.773 64.3234 310.24C64.3234 309.504 64.6008 308.912 65.1554 308.464C65.7208 308.016 66.4194 307.792 67.2514 307.792C67.9128 307.792 68.4994 307.941 69.0114 308.24C69.5341 308.528 69.9341 308.933 70.2114 309.456L68.7554 310.272C68.4781 309.664 67.9768 309.36 67.2514 309.36C66.9208 309.36 66.6434 309.435 66.4194 309.584C66.1954 309.723 66.0834 309.931 66.0834 310.208ZM73.3833 312.736C73.5113 313.344 73.8046 313.813 74.2633 314.144C74.722 314.464 75.282 314.624 75.9433 314.624C76.8606 314.624 77.5486 314.293 78.0073 313.632L79.4313 314.464C78.642 315.627 77.474 316.208 75.9273 316.208C74.626 316.208 73.5753 315.813 72.7753 315.024C71.9753 314.224 71.5753 313.216 71.5753 312C71.5753 310.805 71.97 309.808 72.7593 309.008C73.5486 308.197 74.562 307.792 75.7993 307.792C76.9726 307.792 77.9326 308.203 78.6793 309.024C79.4366 309.845 79.8153 310.843 79.8153 312.016C79.8153 312.197 79.794 312.437 79.7513 312.736H73.3833ZM73.3673 311.328H78.0713C77.954 310.677 77.682 310.187 77.2553 309.856C76.8393 309.525 76.3486 309.36 75.7833 309.36C75.1433 309.36 74.61 309.536 74.1833 309.888C73.7566 310.24 73.4846 310.72 73.3673 311.328ZM85.8698 309.664H83.8858V313.504C83.8858 313.835 83.9605 314.075 84.1098 314.224C84.2591 314.363 84.4778 314.443 84.7658 314.464C85.0645 314.475 85.4325 314.469 85.8698 314.448V316C84.5471 316.16 83.5978 316.048 83.0218 315.664C82.4458 315.269 82.1578 314.549 82.1578 313.504V309.664H80.6858V308H82.1578V306.272L83.8858 305.76V308H85.8698V309.664Z" fill="#797979"/>
</svg>
