<svg width="18" height="18" viewBox="0 0 18 18" fill="none" xmlns="http://www.w3.org/2000/svg">
<path d="M15.75 9H15M15 9H3M15 9V10.5C15 11.3535 14.5628 12.936 12.9413 13.3807M3 9C2.80109 9 2.61032 8.92098 2.46967 8.78033C2.32902 8.63968 2.25 8.44891 2.25 8.25V5.25C2.25 4.5 2.7 3 4.5 3C6.3 3 6.75 4.5 6.75 5.25M3 9V10.5C3 11.3535 3.43725 12.936 5.05875 13.3807M6.75 5.25H8.25M6.75 5.25H5.25M5.05875 13.3807C5.36571 13.4626 5.68232 13.5028 6 13.5H12C12.351 13.5 12.6638 13.4572 12.9413 13.3807M5.05875 13.3807L4.5 15M12.9413 13.3807L13.5 15" stroke="#A6A6A6" stroke-width="1.5" stroke-linecap="round" stroke-linejoin="round"/>
</svg>
