<svg width="17" height="17" viewBox="0 0 17 17" fill="none" xmlns="http://www.w3.org/2000/svg">
<g clip-path="url(#clip0_80_42)">
<path d="M1.62021 0.0597668C1.29482 0.139454 0.730367 0.478125 0.55771 0.683985C0.185835 1.12227 0.0397416 1.52734 0.0397416 2.0918C0.033101 2.53008 0.0596635 2.68281 0.205757 2.98828C0.484663 3.57266 0.942867 3.97109 1.56044 4.15039C1.78623 4.2168 1.83271 4.26328 1.87255 4.45586C1.89912 4.58203 2.15146 6.53437 2.43037 8.79219C2.76904 11.5148 2.91513 12.916 2.86865 12.9359C2.63623 13.009 2.17138 13.4008 1.99209 13.6664C1.24834 14.7887 1.64013 16.2297 2.84873 16.7941C3.70537 17.1926 4.82763 16.9203 5.37216 16.1832C5.65771 15.7914 5.75732 15.5656 5.83037 15.1473L5.87685 14.8551L8.91162 14.0582L11.9464 13.2613L12.2519 13.6C12.6901 14.0914 13.1683 14.3039 13.8124 14.3105C14.669 14.3105 15.353 13.8723 15.7315 13.082C15.9772 12.5574 15.9772 11.8004 15.7183 11.309C15.5124 10.9105 15.1737 10.5453 14.855 10.3859C14.7421 10.3262 14.6358 10.273 14.6226 10.2598C14.6093 10.2465 15.0343 6.96601 15.1073 6.52109C15.1405 6.35508 15.1804 6.30859 15.2933 6.30859C15.5323 6.30859 16.0835 6.00976 16.3624 5.7375C17.1726 4.93398 17.1726 3.5793 16.3624 2.7625C15.7581 2.1582 14.762 1.97891 14.0116 2.33086C13.6132 2.52344 13.2081 2.88203 13.0487 3.1875C12.989 3.30039 12.9226 3.38672 12.896 3.38672C12.8694 3.38672 12.5042 3.32695 12.0858 3.25391C11.6675 3.18086 11.2757 3.12109 11.2159 3.12109C11.1362 3.12109 11.0897 3.23398 11.03 3.59922C10.9901 3.8582 10.9769 4.09062 11.0034 4.11719C11.03 4.14375 11.4019 4.2168 11.8202 4.2832C12.6968 4.41601 12.8163 4.4625 12.8163 4.66836C12.8163 5.08008 13.3741 5.85039 13.8456 6.08945C13.9585 6.14922 14.0515 6.1957 14.0647 6.20898C14.078 6.22227 13.653 9.50273 13.58 9.94766C13.5468 10.1137 13.5069 10.1602 13.394 10.1602C13.155 10.1602 12.6038 10.4523 12.3249 10.7246C12.0327 11.0168 11.7737 11.5215 11.714 11.9332C11.694 12.0859 11.6343 12.2254 11.5944 12.2387C11.5479 12.2586 10.18 12.6238 8.54638 13.0555L5.58466 13.8324L5.27255 13.4871C4.9538 13.1285 4.6417 12.9359 4.26982 12.8496C4.15029 12.8297 4.0374 12.7832 4.01748 12.7566C3.93779 12.6172 2.91513 4.08398 2.98154 4.06406C3.26709 3.97109 3.75849 3.50625 4.01748 3.09453C4.07724 2.99492 4.15029 3.00156 4.87412 3.12109C5.30576 3.20078 5.67099 3.24727 5.69091 3.22734C5.7374 3.18086 5.87021 2.26445 5.83701 2.23125C5.82373 2.21133 5.51162 2.15156 5.14638 2.0918C4.3163 1.95898 4.18349 1.90586 4.18349 1.71328C4.17685 1.25508 3.60576 0.517969 3.03466 0.219141C2.68271 0.046484 1.98544 -0.0398426 1.62021 0.0597668ZM2.70927 1.2418C3.04794 1.49414 3.15419 1.70664 3.15419 2.125C3.15419 2.41719 3.12099 2.56328 3.01474 2.69609C2.5499 3.32695 1.73974 3.34688 1.2749 2.73594C1.02255 2.40391 1.01591 1.85273 1.2749 1.51406C1.37451 1.38789 1.5538 1.23516 1.67334 1.16875C1.95224 1.0293 2.47021 1.0625 2.70927 1.2418ZM15.3198 3.29375C15.6186 3.43984 15.8776 3.78516 15.9175 4.10391C16.0503 5.11328 14.855 5.7043 14.1378 4.98711C13.3077 4.15703 14.2573 2.7957 15.3198 3.29375ZM14.2308 11.2492C14.9214 11.5348 15.0808 12.4113 14.5429 12.9492C14.1046 13.3875 13.5069 13.3941 13.0753 12.9559C12.2519 12.1391 13.1616 10.7977 14.2308 11.2492ZM4.13701 13.9055C4.42255 14.0184 4.70146 14.357 4.75459 14.6426C4.82099 15.0145 4.72802 15.3199 4.4624 15.5988C4.0374 16.0504 3.4331 16.0504 2.98818 15.6055C2.16474 14.782 3.06123 13.4539 4.13701 13.9055Z" fill="#A6A6A6"/>
<path d="M6.85313 2.84219C6.80664 3.10117 6.77344 3.34023 6.77344 3.37344C6.77344 3.4332 7.46406 3.58594 7.71641 3.58594C7.78945 3.58594 7.8293 3.48633 7.8625 3.24727C7.88906 3.05469 7.92891 2.82227 7.94219 2.72266C7.98203 2.55 7.96875 2.54336 7.63672 2.49687C7.44414 2.47031 7.20508 2.43711 7.10547 2.41719C6.93281 2.37734 6.92617 2.38398 6.85313 2.84219Z" fill="#A6A6A6"/>
<path d="M8.9979 2.94843C8.97798 3.06132 8.93813 3.29374 8.90493 3.4664L8.85181 3.78515L9.05767 3.81835C9.17056 3.83828 9.40298 3.87812 9.57563 3.91132L9.89438 3.96445L9.92759 3.75859C9.94751 3.6457 9.98735 3.41328 10.0206 3.24062L10.0737 2.92187L9.86782 2.88867C9.75493 2.86874 9.52251 2.8289 9.34985 2.7957L9.0311 2.74257L8.9979 2.94843Z" fill="#A6A6A6"/>
</g>
<defs>
<clipPath id="clip0_80_42">
<rect width="17" height="17" fill="white"/>
</clipPath>
</defs>
</svg>
