<?xml version="1.0" standalone="no"?>
<!DOCTYPE svg PUBLIC "-//W3C//DTD SVG 20010904//EN"
 "http://www.w3.org/TR/2001/REC-SVG-20010904/DTD/svg10.dtd">
<svg version="1.0" xmlns="http://www.w3.org/2000/svg"
 width="512.000000pt" height="512.000000pt" viewBox="0 0 512.000000 512.000000"
 preserveAspectRatio="xMidYMid meet">

<g transform="translate(0.000000,512.000000) scale(0.100000,-0.100000)"
fill="#000000" stroke="none">
<path d="M4335 5111 c-32 -14 -4267 -2980 -4298 -3010 -15 -15 -30 -42 -33
-61 -11 -71 69 -139 135 -113 22 8 281 186 454 310 l47 35 0 -600 0 -600 -180
-4 -180 -3 -31 -32 c-44 -44 -45 -102 -1 -145 27 -28 38 -31 106 -36 l76 -5 0
-388 0 -389 29 -32 29 -33 2272 -3 c2018 -2 2274 0 2300 13 64 33 60 -96 60
1793 0 1200 -3 1728 -11 1750 -6 17 -23 39 -37 49 -25 16 -59 18 -414 21
l-388 3 0 590 0 589 47 33 c136 94 173 138 159 192 -15 60 -88 99 -141 76z
m-285 -971 l0 -510 -152 0 c-84 0 -170 -5 -190 -10 -48 -14 -78 -52 -78 -100
0 -72 56 -110 163 -110 l47 0 0 -210 0 -209 -500 -3 -500 -3 -31 -31 c-48 -49
-42 -129 14 -164 12 -7 55 -15 95 -18 l72 -5 0 -208 0 -208 -497 -3 c-464 -3
-500 -4 -525 -21 -37 -25 -53 -77 -38 -121 16 -48 51 -68 132 -74 l68 -5 0
-208 0 -209 -472 0 c-293 0 -487 -4 -510 -10 -48 -14 -78 -52 -78 -99 0 -72
55 -111 155 -111 l55 0 0 -210 0 -210 -215 0 -215 0 0 673 0 674 1593 1116
c875 613 1595 1116 1600 1116 4 1 7 -228 7 -509z m858 -2327 l-3 -1598 -2132
-3 -2133 -2 0 320 0 320 368 0 c221 0 382 4 404 10 20 6 46 22 58 37 19 24 20
39 20 309 l0 283 395 3 395 3 32 33 33 32 3 285 3 284 387 3 c355 3 389 5 414
21 14 10 31 32 37 49 7 19 11 134 11 299 l0 269 368 0 c221 0 382 4 404 10 20
6 46 22 58 37 19 25 20 39 20 309 l0 284 430 0 430 0 -2 -1597z"/>
</g>
</svg>
